<svg width="377" height="73" viewBox="0 0 377 73" fill="none" xmlns="http://www.w3.org/2000/svg">
<path d="M94.5835 27.5533V24.8867C94.5841 21.6184 93.9385 18.3819 92.6834 15.3622C91.4282 12.3425 89.5883 9.59877 87.2683 7.28769C84.9487 4.97661 82.1945 3.14352 79.1632 1.89307C76.1323 0.642627 72.8836 -0.000654897 69.6028 5.00301e-07H24.9809C18.3579 0.00744864 12.0082 2.63183 7.32502 7.29738C2.64179 11.9629 0.00747638 18.2886 0 24.8867V47.1132C0.00747638 53.7114 2.64179 60.0369 7.32502 64.7025C12.0082 69.3681 18.3579 71.9925 24.9809 72H69.5958C76.2217 71.9997 82.5763 69.3777 87.262 64.7109C91.948 60.0441 94.5814 53.7141 94.5835 47.1132V44.4465H55.7637V47.1132C55.7695 50.2797 55.0001 53.3997 53.5221 56.2029C52.0444 59.0061 49.9027 61.4082 47.2828 63.2007C46.3096 62.5299 45.3989 61.7736 44.5612 60.9414L44.5603 60.9399C41.1195 57.5313 39.0793 52.9662 38.8393 48.138C41.7982 44.7816 43.4304 40.4673 43.4304 36.0003C43.4304 31.5333 41.7988 27.2189 38.8399 23.8625C38.9971 20.8755 39.84 17.9643 41.3035 15.3528C42.7673 12.7412 44.8129 10.499 47.2831 8.79873C49.903 10.5918 52.0453 12.9938 53.5239 15.7969C55.0028 18.6001 55.7737 21.7199 55.7704 24.8866V27.5532L94.5835 27.5533ZM53.8015 64.7121C57.8467 60.7053 60.3808 55.4316 60.9764 49.7799H89.0501C88.3997 54.4599 86.0719 58.7475 82.4962 61.8513C78.9205 64.9551 74.3384 66.6654 69.5958 66.6666H51.5948C52.3684 66.0591 53.1053 65.4063 53.8015 64.7121ZM34.9525 27.552C36.9686 29.9074 38.0762 32.9013 38.0771 35.997C38.0777 39.0924 36.9713 42.087 34.9561 44.4432H5.35348V27.552H34.9525ZM40.7753 64.7121C41.1463 65.0817 41.5299 65.4402 41.9256 65.7876C41.7775 65.8332 41.6296 65.88 41.4802 65.922C41.3119 65.9697 41.143 66.015 40.9737 66.0579C40.7033 66.1263 40.4317 66.1905 40.1586 66.2472C39.9833 66.2835 39.8068 66.3153 39.6304 66.3468C39.3684 66.3939 39.1064 66.4398 38.8426 66.4764C38.6146 66.5073 38.3852 66.5295 38.1554 66.5529C37.9404 66.5751 37.7257 66.6012 37.5098 66.6162C37.0547 66.6471 36.5973 66.6666 36.1363 66.6666H24.981C20.2408 66.6603 15.6626 64.9473 12.0901 61.8435C8.51761 58.7397 6.19151 54.4542 5.54043 49.7766H33.604C34.1979 55.4289 36.7307 60.7041 40.7753 64.7121ZM33.6031 22.2187H5.54091C6.19302 17.5421 8.51951 13.2577 12.0918 10.1548C15.6641 7.05201 20.2415 5.33967 24.9809 5.33328H36.1363C36.5964 5.33328 37.0532 5.35266 37.5073 5.38341C37.7296 5.39889 37.9506 5.42574 38.172 5.44887C38.3936 5.47125 38.6158 5.49261 38.8357 5.52258C39.11 5.5605 39.3825 5.60802 39.6544 5.65749C39.8171 5.6868 39.98 5.7156 40.1417 5.74914C40.4302 5.80887 40.7166 5.87643 41.002 5.94918C41.1505 5.98692 41.2987 6.02658 41.4462 6.06813C41.6058 6.11274 41.7633 6.1632 41.9217 6.21186C37.2375 10.3238 34.2698 16.0347 33.6031 22.2187ZM53.8024 7.28772C53.1062 6.59364 52.3693 5.94102 51.596 5.33328H69.6028C74.3451 5.33265 78.9274 7.04253 82.5022 10.1468C86.0773 13.2511 88.4033 17.5397 89.0501 22.22H60.983C60.3874 16.5671 57.8509 11.2925 53.8024 7.28769V7.28772Z" fill="url(#paint0_linear_2483_530)"/>
<path d="M160.42 72.0771C155.522 72.1206 150.666 71.1735 146.146 69.2925C141.886 67.5438 138.022 64.962 134.781 61.6995C131.541 58.437 128.99 54.5601 127.28 50.2983C125.467 45.8454 124.552 41.0808 124.585 36.276V36.0771C124.548 31.2879 125.464 26.5394 127.28 22.1047C129.018 17.8508 131.56 13.9685 134.766 10.6681C138.03 7.33979 141.935 4.70159 146.246 2.91139C150.927 0.978486 155.953 0.014185 161.019 0.0771115C164.016 0.0534483 167.009 0.319987 169.954 0.872979C172.468 1.34995 174.927 2.08302 177.291 3.06061C179.438 3.96296 181.48 5.09687 183.38 6.44204C185.228 7.75577 186.964 9.21914 188.571 10.8173L178.788 22.0549C176.288 19.7608 173.484 17.82 170.453 16.2869C167.481 14.8631 164.217 14.1481 160.919 14.1987C158.117 14.1729 155.342 14.7494 152.784 15.889C150.334 16.9833 148.142 18.5756 146.346 20.5637C144.528 22.5868 143.106 24.9308 142.153 27.4748C141.143 30.1614 140.636 33.0093 140.656 35.8782V36.0771C140.638 38.9616 141.146 41.8257 142.153 44.5302C143.093 47.0844 144.497 49.4442 146.296 51.4911C148.124 53.5518 150.377 55.1962 152.9 56.3116C155.424 57.4273 158.159 57.988 160.92 57.9556C164.426 58.0642 167.906 57.313 171.052 55.768C174.045 54.1432 176.813 52.137 179.287 49.8009L189.07 59.6457C187.34 61.5072 185.471 63.2359 183.48 64.8169C181.522 66.3595 179.395 67.677 177.141 68.7456C174.739 69.8748 172.208 70.7094 169.604 71.2314C166.579 71.8227 163.502 72.1059 160.42 72.0771Z" fill="#140F37"/>
<path d="M198.852 1.27051H214.224V28.8174H242.574V1.27051H257.947V70.883H242.574V42.938H214.224V70.883H198.852V1.27051Z" fill="#140F37"/>
<path d="M272.92 1.27051H288.293V70.883H272.92V1.27051Z" fill="#140F37"/>
<path d="M303.268 1.27071H331.815C335.631 1.21116 339.428 1.79956 343.045 3.01067C346.149 4.05998 349.004 5.73566 351.431 7.9331C353.726 10.0571 355.533 12.6532 356.722 15.5416C357.984 18.6521 358.61 21.9819 358.568 25.3367V25.5357C358.647 29.2019 357.897 32.8389 356.373 36.1764C354.967 39.1515 352.901 41.7696 350.332 43.8336C347.67 45.9423 344.617 47.5129 341.349 48.4576C337.769 49.5079 334.05 50.0274 330.319 49.9995H318.638V70.8831H303.268V1.27071ZM330.819 36.3753C334.676 36.3753 337.672 35.3643 339.801 33.342C340.837 32.3859 341.656 31.2228 342.205 29.9287C342.756 28.6347 343.027 27.2392 342.996 25.8341V25.6351C343.093 24.1566 342.84 22.6761 342.259 21.312C341.678 19.9478 340.786 18.7379 339.651 17.7789C337.01 15.86 333.782 14.9112 330.517 15.0939H318.638V36.3753H330.819Z" fill="#140F37"/>
<path d="M374.794 12.8616C373.345 14.2872 371.58 15 369.5 15C367.42 15 365.645 14.2872 364.174 12.8616C362.725 11.4359 362 9.64876 362 7.5C362 5.3719 362.725 3.59504 364.174 2.16942C365.645 0.72314 367.42 0 369.5 0C371.58 0 373.345 0.72314 374.794 2.16942C376.265 3.59504 377 5.3719 377 7.5C377 9.64876 376.265 11.4359 374.794 12.8616ZM365.025 12.1178C366.202 13.3161 367.693 13.9153 369.5 13.9153C371.307 13.9153 372.788 13.3161 373.943 12.1178C375.12 10.8988 375.708 9.3595 375.708 7.5C375.708 5.66116 375.12 4.13223 373.943 2.91322C372.767 1.69422 371.286 1.08471 369.5 1.08471C367.714 1.08471 366.233 1.69422 365.057 2.91322C363.88 4.13223 363.292 5.66116 363.292 7.5C363.292 9.3595 363.87 10.8988 365.025 12.1178ZM366.569 11.374V3.44008H370.288C371.023 3.44008 371.632 3.65702 372.116 4.09091C372.599 4.50413 372.84 5.03099 372.84 5.67149C372.84 6.68388 372.336 7.31405 371.328 7.56198V7.59298C372.084 7.79959 372.504 8.33678 372.588 9.20454C372.609 9.3905 372.63 9.59711 372.651 9.82438C372.672 10.0517 372.683 10.2376 372.683 10.3822C372.704 10.5269 372.714 10.6715 372.714 10.8161C372.735 10.9607 372.756 11.0744 372.777 11.157C372.819 11.219 372.872 11.2603 372.935 11.281V11.374H371.391C371.202 11.2913 371.086 10.6818 371.044 9.54545C371.002 8.63636 370.487 8.18182 369.5 8.18182H368.176V11.374H366.569ZM368.176 4.74173V6.97314H369.941C370.824 6.97314 371.265 6.60124 371.265 5.85744C371.265 5.11364 370.824 4.74173 369.941 4.74173H368.176Z" fill="#140F37"/>
<defs>
<linearGradient id="paint0_linear_2483_530" x1="37.2712" y1="45.9887" x2="83.8829" y2="-0.799468" gradientUnits="userSpaceOnUse">
<stop stop-color="#5147DD"/>
<stop offset="1" stop-color="#DD80DD"/>
</linearGradient>
</defs>
</svg>
